<mxfile host="app.diagrams.net" modified="2023-04-22T04:20:29.602Z" agent="Mozilla/5.0 (Macintosh; Intel Mac OS X 10.15; rv:109.0) Gecko/20100101 Firefox/112.0" etag="gyYbZiSd_yWqotD6VA4s" version="21.2.1">
  <diagram name="Page-1" id="nQ0bujpsWfccVxZER0sL">
    <mxGraphModel dx="1068" dy="656" grid="1" gridSize="10" guides="1" tooltips="1" connect="1" arrows="1" fold="1" page="1" pageScale="1" pageWidth="850" pageHeight="1100" math="0" shadow="0">
      <root>
        <mxCell id="0" />
        <mxCell id="1" parent="0" />
        <mxCell id="w1cLA0WEuOcM6X2SibXZ-4" value="" style="shape=table;startSize=0;container=1;collapsible=0;childLayout=tableLayout;fontSize=16;strokeWidth=2;rounded=1;swimlaneLine=1;sketch=1;curveFitting=1;jiggle=2;" vertex="1" parent="1">
          <mxGeometry x="60" y="200" width="250" height="40" as="geometry" />
        </mxCell>
        <mxCell id="w1cLA0WEuOcM6X2SibXZ-5" value="" style="shape=tableRow;horizontal=0;startSize=0;swimlaneHead=0;swimlaneBody=0;strokeColor=inherit;top=0;left=0;bottom=0;right=0;collapsible=0;dropTarget=0;fillColor=none;points=[[0,0.5],[1,0.5]];portConstraint=eastwest;fontSize=16;" vertex="1" parent="w1cLA0WEuOcM6X2SibXZ-4">
          <mxGeometry width="250" height="40" as="geometry" />
        </mxCell>
        <mxCell id="w1cLA0WEuOcM6X2SibXZ-6" value="" style="shape=partialRectangle;html=1;whiteSpace=wrap;connectable=0;strokeColor=inherit;overflow=hidden;fillColor=none;top=0;left=0;bottom=0;right=0;pointerEvents=1;fontSize=16;" vertex="1" parent="w1cLA0WEuOcM6X2SibXZ-5">
          <mxGeometry width="50" height="40" as="geometry">
            <mxRectangle width="50" height="40" as="alternateBounds" />
          </mxGeometry>
        </mxCell>
        <mxCell id="w1cLA0WEuOcM6X2SibXZ-7" value="" style="shape=partialRectangle;html=1;whiteSpace=wrap;connectable=0;strokeColor=inherit;overflow=hidden;fillColor=#FF3399;top=0;left=0;bottom=0;right=0;pointerEvents=1;fontSize=16;sketch=1;curveFitting=1;jiggle=2;strokeWidth=2;" vertex="1" parent="w1cLA0WEuOcM6X2SibXZ-5">
          <mxGeometry x="50" width="50" height="40" as="geometry">
            <mxRectangle width="50" height="40" as="alternateBounds" />
          </mxGeometry>
        </mxCell>
        <mxCell id="w1cLA0WEuOcM6X2SibXZ-8" value="" style="shape=partialRectangle;html=1;whiteSpace=wrap;connectable=0;strokeColor=inherit;overflow=hidden;fillColor=none;top=0;left=0;bottom=0;right=0;pointerEvents=1;fontSize=16;" vertex="1" parent="w1cLA0WEuOcM6X2SibXZ-5">
          <mxGeometry x="100" width="50" height="40" as="geometry">
            <mxRectangle width="50" height="40" as="alternateBounds" />
          </mxGeometry>
        </mxCell>
        <mxCell id="w1cLA0WEuOcM6X2SibXZ-17" style="shape=partialRectangle;html=1;whiteSpace=wrap;connectable=0;strokeColor=inherit;overflow=hidden;fillColor=#A680B8;top=0;left=0;bottom=0;right=0;pointerEvents=1;fontSize=16;fillStyle=zigzag;sketch=1;curveFitting=1;jiggle=2;strokeWidth=2;" vertex="1" parent="w1cLA0WEuOcM6X2SibXZ-5">
          <mxGeometry x="150" width="50" height="40" as="geometry">
            <mxRectangle width="50" height="40" as="alternateBounds" />
          </mxGeometry>
        </mxCell>
        <mxCell id="w1cLA0WEuOcM6X2SibXZ-18" style="shape=partialRectangle;html=1;whiteSpace=wrap;connectable=0;strokeColor=inherit;overflow=hidden;fillColor=none;top=0;left=0;bottom=0;right=0;pointerEvents=1;fontSize=16;" vertex="1" parent="w1cLA0WEuOcM6X2SibXZ-5">
          <mxGeometry x="200" width="50" height="40" as="geometry">
            <mxRectangle width="50" height="40" as="alternateBounds" />
          </mxGeometry>
        </mxCell>
        <mxCell id="w1cLA0WEuOcM6X2SibXZ-19" value="" style="rounded=1;whiteSpace=wrap;html=1;strokeWidth=2;fillWeight=4;hachureGap=8;hachureAngle=45;fillColor=#FF0080;sketch=1;" vertex="1" parent="1">
          <mxGeometry x="630" y="150" width="90" height="30" as="geometry" />
        </mxCell>
        <mxCell id="w1cLA0WEuOcM6X2SibXZ-20" value="" style="rounded=1;whiteSpace=wrap;html=1;strokeWidth=2;fillWeight=4;hachureGap=8;hachureAngle=45;fillColor=#A680B8;sketch=1;" vertex="1" parent="1">
          <mxGeometry x="630" y="190" width="90" height="30" as="geometry" />
        </mxCell>
        <mxCell id="w1cLA0WEuOcM6X2SibXZ-21" value="" style="rounded=1;whiteSpace=wrap;html=1;strokeWidth=2;fillWeight=4;hachureGap=8;hachureAngle=45;fillColor=#33FF33;sketch=1;" vertex="1" parent="1">
          <mxGeometry x="630" y="230" width="90" height="30" as="geometry" />
        </mxCell>
        <mxCell id="w1cLA0WEuOcM6X2SibXZ-22" value="" style="rounded=1;whiteSpace=wrap;html=1;strokeWidth=2;fillWeight=4;hachureGap=8;hachureAngle=45;fillColor=#FFB570;sketch=1;" vertex="1" parent="1">
          <mxGeometry x="630" y="270" width="90" height="30" as="geometry" />
        </mxCell>
        <mxCell id="w1cLA0WEuOcM6X2SibXZ-23" value="" style="endArrow=classic;html=1;sketch=1;curveFitting=1;jiggle=2;curved=1;strokeWidth=2;" edge="1" parent="1">
          <mxGeometry width="50" height="50" relative="1" as="geometry">
            <mxPoint x="570" y="220" as="sourcePoint" />
            <mxPoint x="620" y="170" as="targetPoint" />
            <Array as="points">
              <mxPoint x="575" y="180" />
            </Array>
          </mxGeometry>
        </mxCell>
        <mxCell id="w1cLA0WEuOcM6X2SibXZ-24" value="" style="endArrow=classic;html=1;sketch=1;curveFitting=1;jiggle=2;curved=1;strokeWidth=2;" edge="1" parent="1">
          <mxGeometry width="50" height="50" relative="1" as="geometry">
            <mxPoint x="730" y="170" as="sourcePoint" />
            <mxPoint x="780" y="210" as="targetPoint" />
            <Array as="points">
              <mxPoint x="770" y="160" />
            </Array>
          </mxGeometry>
        </mxCell>
        <mxCell id="w1cLA0WEuOcM6X2SibXZ-25" value="" style="ellipse;whiteSpace=wrap;html=1;strokeWidth=2;fillWeight=2;hachureGap=8;fillColor=#FF0080;fillStyle=solid;sketch=1;" vertex="1" parent="1">
          <mxGeometry x="425" y="140" width="40" height="40" as="geometry" />
        </mxCell>
        <mxCell id="w1cLA0WEuOcM6X2SibXZ-26" value="" style="ellipse;whiteSpace=wrap;html=1;strokeWidth=2;fillWeight=2;hachureGap=8;fillColor=#A680B8;fillStyle=solid;sketch=1;" vertex="1" parent="1">
          <mxGeometry x="370" y="200" width="40" height="40" as="geometry" />
        </mxCell>
        <mxCell id="w1cLA0WEuOcM6X2SibXZ-27" value="" style="ellipse;whiteSpace=wrap;html=1;strokeWidth=2;fillWeight=2;hachureGap=8;fillColor=#7EA6E0;fillStyle=solid;sketch=1;" vertex="1" parent="1">
          <mxGeometry x="480" y="200" width="40" height="40" as="geometry" />
        </mxCell>
        <mxCell id="w1cLA0WEuOcM6X2SibXZ-28" value="" style="ellipse;whiteSpace=wrap;html=1;strokeWidth=2;fillWeight=2;hachureGap=8;fillColor=#33FF33;fillStyle=solid;sketch=1;gradientColor=none;" vertex="1" parent="1">
          <mxGeometry x="425" y="260" width="40" height="40" as="geometry" />
        </mxCell>
        <mxCell id="w1cLA0WEuOcM6X2SibXZ-29" value="" style="endArrow=classic;html=1;rounded=0;sketch=1;curveFitting=1;jiggle=2;strokeWidth=2;" edge="1" parent="1">
          <mxGeometry width="50" height="50" relative="1" as="geometry">
            <mxPoint x="407" y="239" as="sourcePoint" />
            <mxPoint x="428.8526249602071" y="263.9286188568227" as="targetPoint" />
          </mxGeometry>
        </mxCell>
        <mxCell id="w1cLA0WEuOcM6X2SibXZ-30" value="" style="endArrow=classic;html=1;rounded=0;sketch=1;curveFitting=1;jiggle=2;strokeWidth=2;entryX=0.25;entryY=1;entryDx=0;entryDy=0;entryPerimeter=0;" edge="1" parent="1" target="w1cLA0WEuOcM6X2SibXZ-27">
          <mxGeometry width="50" height="50" relative="1" as="geometry">
            <mxPoint x="465" y="267.54" as="sourcePoint" />
            <mxPoint x="486.8526249602071" y="292.46861885682273" as="targetPoint" />
          </mxGeometry>
        </mxCell>
        <mxCell id="w1cLA0WEuOcM6X2SibXZ-31" value="" style="endArrow=classic;html=1;rounded=0;sketch=1;curveFitting=1;jiggle=2;strokeWidth=2;entryX=0.25;entryY=1;entryDx=0;entryDy=0;entryPerimeter=0;" edge="1" parent="1">
          <mxGeometry width="50" height="50" relative="1" as="geometry">
            <mxPoint x="404" y="202" as="sourcePoint" />
            <mxPoint x="429" y="174.45999999999998" as="targetPoint" />
          </mxGeometry>
        </mxCell>
        <mxCell id="w1cLA0WEuOcM6X2SibXZ-32" value="" style="endArrow=classic;html=1;rounded=0;sketch=1;curveFitting=1;jiggle=2;strokeWidth=2;" edge="1" parent="1" target="w1cLA0WEuOcM6X2SibXZ-27">
          <mxGeometry width="50" height="50" relative="1" as="geometry">
            <mxPoint x="465" y="173.76999999999998" as="sourcePoint" />
            <mxPoint x="490" y="146.22999999999996" as="targetPoint" />
          </mxGeometry>
        </mxCell>
      </root>
    </mxGraphModel>
  </diagram>
</mxfile>
